REM DIRINDEX 1\4,1\2\5,1\2\6,1\2\7,1\3\8,1\3\9,1\3\10,1\3\11
REM DIRNAME cjc108,folder01,folder02,folder03,folder04,folder05,folder06,folder07,folder08,folder09,folder10
TITLE ""
FILE "t_k_001-010.mp3" MP3
  TRACK 01 AUDIO
    TITLE "4:cjc108_0001"
    INDEX 01 00:00:00
  TRACK 02 AUDIO
    TITLE "0:"
    INDEX 01 00:02:24
  TRACK 03 AUDIO
    TITLE "5:cjc108_0002"
    INDEX 01 00:03:43
  TRACK 04 AUDIO
    TITLE "0:"
    INDEX 01 00:04:66
  TRACK 05 AUDIO
    TITLE "6:cjc108_0003"
    INDEX 01 00:05:01
  TRACK 06 AUDIO
    TITLE "0:"
    INDEX 01 00:07:00
  TRACK 07 AUDIO
    TITLE "7:cjc108_0004"
    INDEX 01 00:07:09
  TRACK 08 AUDIO
    TITLE "0:"
    INDEX 01 00:14:02
  TRACK 09 AUDIO
    TITLE "5:cjc108_0005"
    INDEX 01 00:14:58
  TRACK 10 AUDIO
    TITLE "0:"
    INDEX 01 00:15:72
  TRACK 11 AUDIO
    TITLE "6:cjc108_0006"
    INDEX 01 00:15:74
  TRACK 12 AUDIO
    TITLE "0:"
    INDEX 01 00:16:73
  TRACK 13 AUDIO
    TITLE "7:cjc108_0007"
    INDEX 01 00:17:14
  TRACK 14 AUDIO
    TITLE "0:"
    INDEX 01 00:21:57
  TRACK 15 AUDIO
    TITLE "5:cjc108_0008"
    INDEX 01 00:22:27
  TRACK 16 AUDIO
    TITLE "0:"
    INDEX 01 00:23:34
  TRACK 17 AUDIO
    TITLE "6:cjc108_0009"
    INDEX 01 00:23:38
  TRACK 18 AUDIO
    TITLE "0:"
    INDEX 01 00:24:43
  TRACK 19 AUDIO
    TITLE "7:cjc108_0010"
    INDEX 01 00:24:61
  TRACK 20 AUDIO
    TITLE "0:"
    INDEX 01 00:30:36
  TRACK 21 AUDIO
    TITLE "5:cjc108_0011"
    INDEX 01 00:31:14
  TRACK 22 AUDIO
    TITLE "0:"
    INDEX 01 00:32:19
  TRACK 23 AUDIO
    TITLE "6:cjc108_0012"
    INDEX 01 00:32:39
  TRACK 24 AUDIO
    TITLE "0:"
    INDEX 01 00:33:50
  TRACK 25 AUDIO
    TITLE "7:cjc108_0013"
    INDEX 01 00:33:68
  TRACK 26 AUDIO
    TITLE "0:"
    INDEX 01 00:39:39
  TRACK 27 AUDIO
    TITLE "5:cjc108_0014"
    INDEX 01 00:40:15
  TRACK 28 AUDIO
    TITLE "0:"
    INDEX 01 00:41:22
  TRACK 29 AUDIO
    TITLE "6:cjc108_0015"
    INDEX 01 00:41:44
  TRACK 30 AUDIO
    TITLE "0:"
    INDEX 01 00:43:68
  TRACK 31 AUDIO
    TITLE "7:cjc108_0016"
    INDEX 01 00:44:16
  TRACK 32 AUDIO
    TITLE "0:"
    INDEX 01 00:48:73
  TRACK 33 AUDIO
    TITLE "5:cjc108_0017"
    INDEX 01 00:49:63
  TRACK 34 AUDIO
    TITLE "0:"
    INDEX 01 00:51:01
  TRACK 35 AUDIO
    TITLE "6:cjc108_0018"
    INDEX 01 00:51:15
  TRACK 36 AUDIO
    TITLE "0:"
    INDEX 01 00:53:60
  TRACK 37 AUDIO
    TITLE "7:cjc108_0019"
    INDEX 01 00:53:74
  TRACK 38 AUDIO
    TITLE "0:"
    INDEX 01 00:58:69
  TRACK 39 AUDIO
    TITLE "5:cjc108_0020"
    INDEX 01 00:59:47
  TRACK 40 AUDIO
    TITLE "0:"
    INDEX 01 01:00:59
  TRACK 41 AUDIO
    TITLE "6:cjc108_0021"
    INDEX 01 01:01:01
  TRACK 42 AUDIO
    TITLE "0:"
    INDEX 01 01:03:26
  TRACK 43 AUDIO
    TITLE "7:cjc108_0022"
    INDEX 01 01:03:39
  TRACK 44 AUDIO
    TITLE "0:"
    INDEX 01 01:08:29
  TRACK 45 AUDIO
    TITLE "5:cjc108_0023"
    INDEX 01 01:09:12
  TRACK 46 AUDIO
    TITLE "0:"
    INDEX 01 01:10:22
  TRACK 47 AUDIO
    TITLE "6:cjc108_0024"
    INDEX 01 01:10:41
  TRACK 48 AUDIO
    TITLE "0:"
    INDEX 01 01:12:71
  TRACK 49 AUDIO
    TITLE "7:cjc108_0025"
    INDEX 01 01:13:10
  TRACK 50 AUDIO
    TITLE "0:"
    INDEX 01 01:18:35
  TRACK 51 AUDIO
    TITLE "5:cjc108_0026"
    INDEX 01 01:19:19
  TRACK 52 AUDIO
    TITLE "0:"
    INDEX 01 01:20:30
  TRACK 53 AUDIO
    TITLE "6:cjc108_0027"
    INDEX 01 01:20:42
  TRACK 54 AUDIO
    TITLE "0:"
    INDEX 01 01:22:58
  TRACK 55 AUDIO
    TITLE "7:cjc108_0028"
    INDEX 01 01:22:72
  TRACK 56 AUDIO
    TITLE "0:"
    INDEX 01 01:27:38
  TRACK 57 AUDIO
    TITLE "5:cjc108_0029"
    INDEX 01 01:28:10
  TRACK 58 AUDIO
    TITLE "0:"
    INDEX 01 01:29:19
  TRACK 59 AUDIO
    TITLE "6:cjc108_0030"
    INDEX 01 01:29:29
  TRACK 60 AUDIO
    TITLE "0:"
    INDEX 01 01:33:01
  TRACK 61 AUDIO
    TITLE "7:cjc108_0031"
    INDEX 01 01:33:13
  TRACK 62 AUDIO
    TITLE "0:"
    INDEX 01 01:37:50
